<svg width="25" height="24" viewBox="0 0 25 24" fill="none" xmlns="http://www.w3.org/2000/svg">
<path d="M12.5 12C13.05 12 13.521 11.804 13.913 11.412C14.3043 11.0207 14.5 10.55 14.5 10C14.5 9.45 14.3043 8.979 13.913 8.587C13.521 8.19567 13.05 8 12.5 8C11.95 8 11.4793 8.19567 11.088 8.587C10.696 8.979 10.5 9.45 10.5 10C10.5 10.55 10.696 11.0207 11.088 11.412C11.4793 11.804 11.95 12 12.5 12ZM12.5 22C9.81667 19.7167 7.81267 17.5957 6.488 15.637C5.16267 13.679 4.5 11.8667 4.5 10.2C4.5 7.7 5.30433 5.70833 6.913 4.225C8.521 2.74167 10.3833 2 12.5 2C14.6167 2 16.479 2.74167 18.087 4.225C19.6957 5.70833 20.5 7.7 20.5 10.2C20.5 11.8667 19.8377 13.679 18.513 15.637C17.1877 17.5957 15.1833 19.7167 12.5 22Z" fill="#F4743B"/>
</svg>
