<svg width="25" height="24" viewBox="0 0 25 24" fill="none" xmlns="http://www.w3.org/2000/svg">
<path d="M12.5 20.9999L11.05 19.6999C9.36667 18.1832 7.975 16.8749 6.875 15.7749C5.775 14.6749 4.9 13.6872 4.25 12.8119C3.6 11.9372 3.146 11.1332 2.888 10.3999C2.62933 9.66657 2.5 8.91657 2.5 8.1499C2.5 6.58324 3.025 5.2749 4.075 4.2249C5.125 3.1749 6.43333 2.6499 8 2.6499C8.86667 2.6499 9.69167 2.83324 10.475 3.1999C11.2583 3.56657 11.9333 4.08324 12.5 4.7499C13.0667 4.08324 13.7417 3.56657 14.525 3.1999C15.3083 2.83324 16.1333 2.6499 17 2.6499C18.5667 2.6499 19.875 3.1749 20.925 4.2249C21.975 5.2749 22.5 6.58324 22.5 8.1499C22.5 8.91657 22.371 9.66657 22.113 10.3999C21.8543 11.1332 21.4 11.9372 20.75 12.8119C20.1 13.6872 19.225 14.6749 18.125 15.7749C17.025 16.8749 15.6333 18.1832 13.95 19.6999L12.5 20.9999Z" fill="#555555"/>
</svg>
